<?xml version="1.0" standalone="no"?>
<!DOCTYPE svg PUBLIC "-//W3C//DTD SVG 20010904//EN"
 "http://www.w3.org/TR/2001/REC-SVG-20010904/DTD/svg10.dtd">
<svg version="1.0" xmlns="http://www.w3.org/2000/svg"
 width="512.000000pt" height="512.000000pt" viewBox="0 0 512.000000 512.000000"
 preserveAspectRatio="xMidYMid meet">
<metadata>
Created by potrace 1.14, written by Peter Selinger 2001-2017
</metadata>
<g transform="translate(0.000000,512.000000) scale(0.100000,-0.100000)"
fill="#000000" stroke="none">
<path d="M2460 4943 c-124 -42 -213 -158 -219 -285 -1 -17 -29 -18 -441 -18
l-440 0 0 -80 0 -80 -457 -1 c-252 0 -471 -3 -487 -5 -86 -14 -182 -90 -226
-179 l-25 -50 -3 -1432 -2 -1431 21 -56 c25 -69 99 -148 166 -179 48 -22 49
-22 810 -25 l762 -2 -23 -63 c-115 -312 -188 -505 -195 -522 -5 -11 -12 -28
-15 -37 -5 -16 -22 -18 -166 -18 l-160 0 0 -160 0 -160 1200 0 1200 0 0 160 0
160 -161 2 -161 3 -65 175 c-35 96 -68 184 -73 195 -5 11 -29 74 -54 140 l-44
120 762 5 c756 5 761 5 808 27 70 32 141 108 167 177 l21 58 -2 1431 -3 1432
-25 50 c-44 89 -140 165 -226 179 -16 2 -235 5 -486 5 l-458 1 0 80 0 80 -440
0 c-412 0 -440 1 -441 18 -6 133 -97 246 -234 290 -45 14 -135 12 -185 -5z"/>
</g>
</svg>
