<svg xmlns="http://www.w3.org/2000/svg" version="1.1" xmlns:xlink="http://www.w3.org/1999/xlink" xmlns:svgjs="http://svgjs.dev/svgjs" width="1500" height="526" viewBox="0 0 1500 526"><g transform="matrix(1,0,0,1,-0.9090909090909918,-0.3939414213196528)"><svg viewBox="0 0 396 139" data-background-color="#ffffff" preserveAspectRatio="xMidYMid meet" height="526" width="1500" xmlns="http://www.w3.org/2000/svg" xmlns:xlink="http://www.w3.org/1999/xlink"><g id="tight-bounds" transform="matrix(1,0,0,1,0.2400000000000091,0.1041023908049965)"><svg viewBox="0 0 395.52 138.79179521839" height="138.79179521839" width="395.52"><g><svg viewBox="0 0 395.52 138.79179521839" height="138.79179521839" width="395.52"><g><svg viewBox="0 0 395.52 138.79179521839" height="138.79179521839" width="395.52"><g id="textblocktransform"><svg viewBox="0 0 395.52 138.79179521839" height="138.79179521839" width="395.52" id="textblock"><g><svg viewBox="0 0 395.52 105.51763741765306" height="105.51763741765306" width="395.52"><rect width="395.52" height="105.51763741765306" x="0" y="0" opacity="1" fill="#0e5ddd" data-fill-palette-color="tertiary"></rect><g transform="matrix(1,0,0,1,23.461705032,23.461705032)"><svg width="348.596589936" viewBox="0.5 -36.75 223.08 37.5" height="58.59422735365306" data-palette-color="#ffffff"><path d="M29.3-32.8L29.3-32.8 29.35-31.05Q29.35-27.4 28.8-24.35L28.8-24.35 26.1-24.35 25.45-29.35 17.25-29.65 17.25-3 22.95-2.35 22.9 0 7.45 0 7.15-1.6 12.6-3.3 12.6-29.65 4.4-29.35 3.75-24.35 1.05-24.35Q0.5-27.4 0.5-31.05L0.5-31.05 0.55-32.8Q6.75-32.6 14.95-32.6L14.95-32.6Q23.25-32.6 29.3-32.8ZM46.4-12.85L33.55-13.1Q33.55-8.15 35.82-5.6 38.1-3.05 41.75-3.05L41.75-3.05Q44.45-3.05 48.15-4.7L48.15-4.7 48.9-2.55 41.1 0.75Q35.6 0.75 32.22-2.63 28.85-6 28.85-11.3L28.85-11.3Q28.85-16.7 32.17-20.55 35.5-24.4 40.3-24.4L40.3-24.4Q42.9-24.4 44.97-23.25 47.05-22.1 48.17-20.1 49.3-18.1 49.25-15.65L49.25-15.65 46.4-12.85ZM37.8-21.35L37.8-21.35Q34.95-19.85 33.95-15.75L33.95-15.75 44.9-16.25Q44.4-18.65 42.42-20.1 40.45-21.55 37.8-21.35ZM59.95-35L59.95-3.2Q62.45-2.9 63.55-2.4L63.55-2.4 63.25 0 51.95 0 51.7-1.65Q52.9-2.25 55.5-3.05L55.5-3.05 55.5-33.15 51.75-32.85 51.15-35.2Q54.5-36.65 57.95-36.75L57.95-36.75 59.95-35ZM83.09-12.85L70.24-13.1Q70.24-8.15 72.52-5.6 74.79-3.05 78.44-3.05L78.44-3.05Q81.14-3.05 84.84-4.7L84.84-4.7 85.59-2.55 77.79 0.75Q72.29 0.75 68.92-2.63 65.54-6 65.54-11.3L65.54-11.3Q65.54-16.7 68.87-20.55 72.19-24.4 76.99-24.4L76.99-24.4Q79.59-24.4 81.67-23.25 83.74-22.1 84.87-20.1 85.99-18.1 85.94-15.65L85.94-15.65 83.09-12.85ZM74.49-21.35L74.49-21.35Q71.64-19.85 70.64-15.75L70.64-15.75 81.59-16.25Q81.09-18.65 79.12-20.1 77.14-21.55 74.49-21.35ZM111.89-15.35L111.89-3.2Q114.39-2.9 115.49-2.4L115.49-2.4 115.19 0 104.84 0 104.59-1.65 107.44-2.75 107.44-14.8Q107.44-20.2 104.24-20.2L104.24-20.2Q101.44-20.2 96.64-16.6L96.64-16.6 96.64-3.15Q98.74-2.9 99.89-2.4L99.89-2.4 99.59 0 88.74 0 88.49-1.65 92.19-3 92.19-33.15 88.44-32.85 87.84-35.2Q91.19-36.65 94.64-36.75L94.64-36.75 96.64-35 96.64-19.3Q103.99-24.2 106.64-24.2L106.64-24.2Q108.09-23.95 109.56-22.73 111.04-21.5 111.47-20.2 111.89-18.9 111.89-15.35L111.89-15.35ZM134.29-12.85L121.44-13.1Q121.44-8.15 123.71-5.6 125.99-3.05 129.64-3.05L129.64-3.05Q132.34-3.05 136.04-4.7L136.04-4.7 136.79-2.55 128.99 0.75Q123.49 0.75 120.11-2.63 116.74-6 116.74-11.3L116.74-11.3Q116.74-16.7 120.06-20.55 123.39-24.4 128.19-24.4L128.19-24.4Q130.79-24.4 132.86-23.25 134.94-22.1 136.06-20.1 137.19-18.1 137.14-15.65L137.14-15.65 134.29-12.85ZM125.69-21.35L125.69-21.35Q122.84-19.85 121.84-15.75L121.84-15.75 132.79-16.25Q132.29-18.65 130.31-20.1 128.34-21.55 125.69-21.35ZM161.64-3.75L162.39-1.55 157.34 0.75Q156.59 0.65 155.44-0.43 154.29-1.5 153.79-2.7L153.79-2.7 148.14 0.7 146.94 0.75Q143.94 0.75 142.11-0.95 140.29-2.65 140.29-5.2L140.29-5.2Q140.29-8.6 143.79-10.55L143.79-10.55 153.54-10.8 153.54-15.95Q153.54-18.25 152.99-19.43 152.44-20.6 151.09-21.3L151.09-21.3Q148.04-21.2 145.44-20.45L145.44-20.45 145.04-15.25 142.39-15.05Q141.09-17.4 140.94-21.05L140.94-21.05Q143.14-22.3 146.84-23.48 150.54-24.65 152.09-24.65L152.09-24.65Q153.49-24.65 154.99-23.63 156.49-22.6 157.24-21.48 157.99-20.35 158.04-17.4L158.04-17.4 158.04-4.3Q158.04-3.3 159.34-3.3L159.34-3.3Q160.09-3.3 161.64-3.75L161.64-3.75ZM146.29-2.9L146.29-2.9Q149.24-2.8 153.54-4.75L153.54-4.75 153.54-8.2 151.04-8.35Q144.99-8.35 144.99-5.2L144.99-5.2Q144.99-3.7 146.29-2.9ZM172.68-35L172.68-3.2Q175.18-2.9 176.28-2.4L176.28-2.4 175.98 0 164.68 0 164.43-1.65Q165.63-2.25 168.23-3.05L168.23-3.05 168.23-33.15 164.48-32.85 163.88-35.2Q167.23-36.65 170.68-36.75L170.68-36.75 172.68-35ZM188.58-3.4L188.58-3.4Q190.03-3.4 193.18-4.55L193.18-4.55 194.03-2.25 187.53 0.75Q185.83 0.85 184.16-0.53 182.48-1.9 182.48-3.5L182.48-3.5 182.48-19.65 179.38-19.6 179.03-22Q180.63-22.7 182.58-23.15L182.58-23.15 184.58-29.45 186.93-29.45 186.93-23.4 193.93-23.4 194.13-21.95 191.78-19.55 186.93-19.55 186.93-6.1Q186.93-4.55 187.28-3.98 187.63-3.4 188.58-3.4ZM219.98-15.35L219.98-3.2Q222.48-2.9 223.58-2.4L223.58-2.4 223.28 0 212.93 0 212.68-1.65 215.53-2.75 215.53-14.8Q215.53-20.2 212.33-20.2L212.33-20.2Q209.53-20.2 204.73-16.6L204.73-16.6 204.73-3.15Q206.83-2.9 207.98-2.4L207.98-2.4 207.68 0 196.83 0 196.58-1.65 200.28-3 200.28-33.15 196.53-32.85 195.93-35.2Q199.28-36.65 202.73-36.75L202.73-36.75 204.73-35 204.73-19.3Q212.08-24.2 214.73-24.2L214.73-24.2Q216.18-23.95 217.65-22.73 219.13-21.5 219.55-20.2 219.98-18.9 219.98-15.35L219.98-15.35Z" opacity="1" transform="matrix(1,0,0,1,0,0)" fill="#ffffff" class="wordmark-text-0" data-fill-palette-color="quaternary" id="text-0"></path></svg></g></svg></g><g transform="matrix(1,0,0,1,0,117.24848993365306)"><svg viewBox="0 0 395.52 21.543305284736952" height="21.543305284736952" width="395.52"><g transform="matrix(1,0,0,1,0,0)"><svg width="395.52" viewBox="0.24 -40.16 1024.08 55.79" height="21.543305284736952" data-palette-color="#0e5ddd"><path d="M18.07 0L0.44 0Q0.24 0 0.24-0.2L0.24-0.2 0.24-0.78Q0.24-0.98 0.59-0.98L0.59-0.98Q1.73-0.98 3.13-1.22L3.13-1.22Q7.59-1.98 7.59-4.3L7.59-4.3 7.59-30.05Q7.35-33.18 4.74-33.45L4.74-33.45Q3.96-33.54 3-33.54L3-33.54 1.61-33.54Q1.42-33.54 1.42-33.74L1.42-33.74 1.42-34.35Q1.42-34.55 1.61-34.55L1.61-34.55 2.69-34.57 6.88-34.59 15.58-34.86Q29.54-34.86 29.54-26.61L29.54-26.61Q29.54-23.12 25.93-20.8L25.93-20.8Q25.37-20.43 24.96-20.26 24.56-20.09 24.51-20.07L24.51-20.07Q27.73-18.26 29.58-16.02 31.42-13.77 31.42-10.64L31.42-10.64Q31.42-3.98 25.12-1.37L25.12-1.37Q21.88 0 18.07 0L18.07 0ZM16.67-19.04L12.79-19.04Q12.48-19.04 12.48-18.77L12.48-18.77 12.48-5.4Q12.48-3.66 14.1-2.61 15.72-1.56 17.6-1.56L17.6-1.56Q21.22-1.56 23.75-4.14 26.29-6.71 26.29-10.49 26.29-14.26 23.57-16.65 20.85-19.04 16.67-19.04L16.67-19.04ZM12.43-32.2L12.43-21.02Q12.43-20.56 12.99-20.56L12.99-20.56 18.99-20.56Q21.34-20.56 22.94-22.29 24.54-24.02 24.54-26.17L24.54-26.17Q24.54-30 22.36-31.73 20.19-33.45 16.58-33.45L16.58-33.45Q15.48-33.37 15.05-33.37 14.62-33.37 14.16-33.39 13.7-33.4 13.23-33.33 12.77-33.25 12.6-33.01 12.43-32.76 12.43-32.2L12.43-32.2ZM50.53-17.5L50.53-17.5Q50.24-17.55 49.68-17.82L49.68-17.82Q47.65-18.75 46.51-18.75 45.36-18.75 44.1-17.32 42.84-15.89 42.84-14.75L42.84-14.75 42.84-3.71Q42.84-1.88 44.97-1.27L44.97-1.27Q45.9-1.03 46.7-0.92 47.51-0.81 47.74-0.71 47.97-0.61 47.97-0.33 47.97-0.05 47.73 0L47.73 0 35.5 0Q35.25-0.05 35.25-0.34L35.25-0.34Q35.25-0.78 36.4-0.93L36.4-0.93Q39.04-1.32 39.04-3.71L39.04-3.71 39.04-16.63Q39.04-17.65 37.91-18.04L37.91-18.04Q37.42-18.21 36.86-18.32 36.3-18.43 35.97-18.53 35.64-18.63 35.56-18.71 35.47-18.8 35.47-19.08 35.47-19.36 35.84-19.56L35.84-19.56 42.06-22.49Q42.36-22.63 42.43-22.63L42.43-22.63Q42.84-22.63 42.84-22.05L42.84-22.05 42.84-18.09Q42.84-17.8 42.99-17.8L42.99-17.8Q43.19-17.8 43.99-18.95L43.99-18.95Q46.31-22.19 47.82-22.19L47.82-22.19Q48.68-22.19 50.45-21.51 52.22-20.83 52.22-20.36L52.22-20.36Q52.22-19.8 51.66-18.65 51.1-17.5 50.53-17.5ZM64.81 0L53.93 0Q53.68-0.05 53.68-0.34L53.68-0.34Q53.68-0.78 54.83-0.93L54.83-0.93Q57.47-1.32 57.47-3.71L57.47-3.71 57.47-16.63Q57.47-17.65 56.34-18.04L56.34-18.04Q55.85-18.21 55.29-18.32 54.73-18.43 54.4-18.53 54.07-18.63 53.99-18.71 53.9-18.8 53.9-19.08 53.9-19.36 54.27-19.56L54.27-19.56 60.49-22.49Q60.79-22.63 60.86-22.63L60.86-22.63Q61.27-22.63 61.27-22.05L61.27-22.05 61.27-3.71Q61.27-1.32 63.91-0.93L63.91-0.93Q65.06-0.78 65.06-0.42 65.06-0.05 64.81 0L64.81 0ZM59.02-29.49Q58-29.49 57.23-30.13 56.46-30.76 56.46-31.9 56.46-33.03 57.2-33.69 57.93-34.35 58.94-34.35 59.96-34.35 60.65-33.57 61.35-32.79 61.35-31.88 61.35-30.98 60.69-30.24 60.03-29.49 59.02-29.49ZM85.91-7.69L85.91-7.69 85.86-12.84Q85.86-15.99 85.32-17.26 84.78-18.53 83.95-19.18 83.12-19.82 81.72-19.82 80.31-19.82 75.77-17.63L75.77-17.63Q75.16-17.26 75.14-16.94L75.14-16.94 75.14-3.81Q75.14-1.34 77.78-0.98L77.78-0.98Q78.92-0.81 78.92-0.43 78.92-0.05 78.68 0L78.68 0 67.79 0Q67.55-0.05 67.55-0.34L67.55-0.34Q67.55-0.81 68.69-0.98L68.69-0.98Q71.33-1.34 71.33-3.81L71.33-3.81 71.33-17.82Q71.33-18.85 70.21-19.24L70.21-19.24Q69.72-19.41 69.16-19.52 68.6-19.63 68.27-19.73 67.94-19.82 67.85-19.91 67.77-20 67.77-20.28 67.77-20.56 68.13-20.75L68.13-20.75 74.36-23.68Q74.65-23.83 74.72-23.83L74.72-23.83Q75.14-23.83 75.14-23.24L75.14-23.24 75.14-19.43Q75.21-19.19 75.33-19.19L75.33-19.19Q75.48-19.19 76.38-19.63L76.38-19.63Q78.48-20.68 80.61-21.66 82.73-22.63 84.12-22.63L84.12-22.63Q89.76-22.63 89.76-12.35L89.76-12.35 89.54-5.22 89.54-3.81Q89.54-1.9 91.45-1.32L91.45-1.32Q92.25-1.05 93-0.94 93.74-0.83 93.97-0.73 94.21-0.63 94.21-0.34 94.21-0.05 93.96 0L93.96 0 82.19 0Q81.95-0.05 81.95-0.34L81.95-0.34Q81.95-0.81 83.1-0.98L83.1-0.98Q85.71-1.34 85.71-4L85.71-4Q85.91-5.22 85.91-7.69ZM114.69-20.29L114.69-20.29Q114.69-20.29 121.23-20.58L121.23-20.58Q121.79-20.58 121.96-20.46 122.13-20.34 122.33-19.62 122.52-18.9 122.52-18.26 122.52-17.63 122.4-17.53 122.28-17.43 121.91-17.43L121.91-17.43 116.49-17.43Q116.64-17.16 116.81-16.87 116.98-16.58 117.25-15.89 117.52-15.21 117.52-13.78 117.52-12.35 116.82-10.8 116.13-9.25 114.78-8.06L114.78-8.06Q111.81-5.37 107.07-5.37L107.07-5.37Q105.82-5.37 104.34-5.83L104.34-5.83Q103.97-5.44 103.36-5.11 102.75-4.79 102.16-4.44L102.16-4.44Q100.7-3.61 100.7-2.78L100.7-2.78Q100.7-0.71 107.58-0.66 114.47-0.61 116.63-0.21 118.79 0.2 119.99 1.39L119.99 1.39Q121.87 3.27 121.87 5.69L121.87 5.69Q121.87 7.76 120.08 9.96L120.08 9.96Q116.98 13.84 110.61 15.14L110.61 15.14Q108.34 15.6 105.8 15.6L105.8 15.6Q101.19 15.6 98.79 13.93 96.4 12.26 96.4 9.89L96.4 9.89Q96.4 8.59 97.01 7.75 97.62 6.91 98.56 6.16 99.5 5.42 100.62 4.6 101.75 3.78 102.77 2.51L102.77 2.51Q100.43 2.32 98.76 1.03 97.08-0.27 97.08-1.51 97.08-2.76 97.74-3.36 98.4-3.96 99.36-4.38 100.31-4.81 101.36-5.18 102.41-5.54 103.19-6.13L103.19-6.13Q100.45-7.2 98.96-9.09 97.48-10.99 97.48-13.23L97.48-13.23Q97.48-17.41 100.51-20.04 103.55-22.68 107.85-22.68 112.15-22.68 114.69-20.29ZM101.42 5.18Q100.84 5.74 100.48 6.37 100.11 7.01 100.11 7.97 100.11 8.94 100.81 10 101.5 11.06 102.7 11.91L102.7 11.91Q105.34 13.87 109.05 13.87 112.76 13.87 115.77 11.71 118.79 9.55 118.79 6.97 118.79 4.39 116.3 3.52L116.3 3.52Q115.13 3.13 110.27 3.03 105.41 2.93 103.97 2.76L103.97 2.76Q103.33 3.49 102.66 4.05 101.99 4.61 101.42 5.18ZM113.52-13.79Q113.52-17.24 111.79-19.4 110.07-21.56 107.24-21.56L107.24-21.56Q103.58-21.56 102.07-18.12L102.07-18.12Q101.48-16.8 101.48-15.09L101.48-15.09Q101.48-11.6 102.92-9.28L102.92-9.28Q104.68-6.49 107.53-6.49 110.39-6.49 111.95-8.42 113.52-10.35 113.52-13.79ZM135.31 0L124.43 0Q124.18-0.05 124.18-0.34L124.18-0.34Q124.18-0.78 125.33-0.93L125.33-0.93Q127.97-1.32 127.97-3.71L127.97-3.71 127.97-16.63Q127.97-17.65 126.84-18.04L126.84-18.04Q126.35-18.21 125.79-18.32 125.23-18.43 124.9-18.53 124.57-18.63 124.49-18.71 124.4-18.8 124.4-19.08 124.4-19.36 124.77-19.56L124.77-19.56 130.99-22.49Q131.29-22.63 131.36-22.63L131.36-22.63Q131.77-22.63 131.77-22.05L131.77-22.05 131.77-3.71Q131.77-1.32 134.41-0.93L134.41-0.93Q135.56-0.78 135.56-0.42 135.56-0.05 135.31 0L135.31 0ZM129.52-29.49Q128.5-29.49 127.73-30.13 126.97-30.76 126.97-31.9 126.97-33.03 127.7-33.69 128.43-34.35 129.44-34.35 130.46-34.35 131.15-33.57 131.85-32.79 131.85-31.88 131.85-30.98 131.19-30.24 130.53-29.49 129.52-29.49ZM156.41-7.69L156.41-7.69 156.36-12.84Q156.36-15.99 155.82-17.26 155.28-18.53 154.45-19.18 153.62-19.82 152.22-19.82 150.82-19.82 146.27-17.63L146.27-17.63Q145.66-17.26 145.64-16.94L145.64-16.94 145.64-3.81Q145.64-1.34 148.28-0.98L148.28-0.98Q149.42-0.81 149.42-0.43 149.42-0.05 149.18 0L149.18 0 138.29 0Q138.05-0.05 138.05-0.34L138.05-0.34Q138.05-0.81 139.19-0.98L139.19-0.98Q141.83-1.34 141.83-3.81L141.83-3.81 141.83-17.82Q141.83-18.85 140.71-19.24L140.71-19.24Q140.22-19.41 139.66-19.52 139.1-19.63 138.77-19.73 138.44-19.82 138.35-19.91 138.27-20 138.27-20.28 138.27-20.56 138.63-20.75L138.63-20.75 144.86-23.68Q145.15-23.83 145.22-23.83L145.22-23.83Q145.64-23.83 145.64-23.24L145.64-23.24 145.64-19.43Q145.71-19.19 145.83-19.19L145.83-19.19Q145.98-19.19 146.88-19.63L146.88-19.63Q148.98-20.68 151.11-21.66 153.23-22.63 154.62-22.63L154.62-22.63Q160.26-22.63 160.26-12.35L160.26-12.35 160.04-5.22 160.04-3.81Q160.04-1.9 161.95-1.32L161.95-1.32Q162.75-1.05 163.5-0.94 164.24-0.83 164.47-0.73 164.71-0.63 164.71-0.34 164.71-0.05 164.46 0L164.46 0 152.69 0Q152.45-0.05 152.45-0.34L152.45-0.34Q152.45-0.81 153.6-0.98L153.6-0.98Q156.21-1.34 156.21-4L156.21-4Q156.41-5.22 156.41-7.69ZM185.19-20.29L185.19-20.29Q185.19-20.29 191.73-20.58L191.73-20.58Q192.29-20.58 192.46-20.46 192.63-20.34 192.83-19.62 193.02-18.9 193.02-18.26 193.02-17.63 192.9-17.53 192.78-17.43 192.41-17.43L192.41-17.43 186.99-17.43Q187.14-17.16 187.31-16.87 187.48-16.58 187.75-15.89 188.02-15.21 188.02-13.78 188.02-12.35 187.32-10.8 186.63-9.25 185.29-8.06L185.29-8.06Q182.31-5.37 177.57-5.37L177.57-5.37Q176.33-5.37 174.84-5.83L174.84-5.83Q174.47-5.44 173.86-5.11 173.25-4.79 172.66-4.44L172.66-4.44Q171.2-3.61 171.2-2.78L171.2-2.78Q171.2-0.71 178.08-0.66 184.97-0.61 187.13-0.21 189.29 0.2 190.49 1.39L190.49 1.39Q192.37 3.27 192.37 5.69L192.37 5.69Q192.37 7.76 190.58 9.96L190.58 9.96Q187.48 13.84 181.11 15.14L181.11 15.14Q178.84 15.6 176.3 15.6L176.3 15.6Q171.69 15.6 169.29 13.93 166.9 12.26 166.9 9.89L166.9 9.89Q166.9 8.59 167.51 7.75 168.12 6.91 169.06 6.16 170 5.42 171.13 4.6 172.25 3.78 173.27 2.51L173.27 2.51Q170.93 2.32 169.26 1.03 167.59-0.27 167.59-1.51 167.59-2.76 168.24-3.36 168.9-3.96 169.86-4.38 170.81-4.81 171.86-5.18 172.91-5.54 173.69-6.13L173.69-6.13Q170.95-7.2 169.46-9.09 167.98-10.99 167.98-13.23L167.98-13.23Q167.98-17.41 171.02-20.04 174.05-22.68 178.35-22.68 182.65-22.68 185.19-20.29ZM171.92 5.18Q171.34 5.74 170.98 6.37 170.61 7.01 170.61 7.97 170.61 8.94 171.31 10 172 11.06 173.2 11.91L173.2 11.91Q175.84 13.87 179.55 13.87 183.26 13.87 186.27 11.71 189.29 9.55 189.29 6.97 189.29 4.39 186.8 3.52L186.8 3.52Q185.63 3.13 180.77 3.03 175.91 2.93 174.47 2.76L174.47 2.76Q173.84 3.49 173.16 4.05 172.49 4.61 171.92 5.18ZM184.02-13.79Q184.02-17.24 182.29-19.4 180.57-21.56 177.74-21.56L177.74-21.56Q174.08-21.56 172.57-18.12L172.57-18.12Q171.98-16.8 171.98-15.09L171.98-15.09Q171.98-11.6 173.42-9.28L173.42-9.28Q175.18-6.49 178.03-6.49 180.89-6.49 182.45-8.42 184.02-10.35 184.02-13.79ZM226.56 0.54L226.56 0.54Q222.71 0.2 219.46-1.45 216.21-3.1 214.02-5.42L214.02-5.42Q209.33-10.38 209.33-17.26L209.33-17.26Q209.33-25.2 214.76-30.3 220.19-35.4 228.3-35.4 236.4-35.4 241.74-30.37 247.07-25.34 247.07-17.5L247.07-17.5Q247.07-8.18 237.58-1.88L237.58-1.88Q237.36-1.73 235.71-0.93 234.06-0.12 234.06-0.01 234.06 0.1 235.59 1.14 237.11 2.17 242.07 6.18L242.07 6.18Q245.05 8.57 246.68 8.9 248.32 9.23 248.32 9.55L248.32 9.55Q248.32 10.16 247.54 10.3 246.75 10.45 245.17 10.45L245.17 10.45Q242.41 10.45 239.06 8.64L239.06 8.64Q233.18 4.76 231.15 2.83 229.13 0.9 227.59 0.66L227.59 0.66Q227.13 0.59 226.56 0.54ZM217.95-29.15Q216.24-27.05 215.32-24.23 214.41-21.41 214.43-18.75L214.43-18.75Q214.48-13.94 216.36-9.97 218.24-6.01 221.62-3.58 225-1.15 229.45-1.15L229.45-1.15Q234.89-1.15 238.5-5.41 242.12-9.67 242.12-16.58 242.12-23.49 238.58-28.17L238.58-28.17Q234.65-33.35 227.59-33.76L227.59-33.76Q221.68-33.76 217.95-29.15L217.95-29.15ZM268.19 0.05L268.19-2.15Q268.07-2.56 267.87-2.43 267.68-2.29 266.28-1.59L266.28-1.59Q261.72 0.68 258.67 0.68 255.61 0.68 254.27-1.27L254.27-1.27Q253.78-2 253.78-3.08L253.78-3.08 253.78-17.97Q253.71-18.68 253.15-19.19L253.15-19.19Q252.39-19.82 251.57-19.87 250.76-19.92 250.76-20.37 250.76-20.83 251.15-20.92L251.15-20.92 256.74-22.53Q257.03-22.63 257.31-22.63 257.59-22.63 257.59-22.22L257.59-22.22 257.59-5.83Q257.59-4.13 259.11-3.2 260.62-2.27 262.98-2.27 265.33-2.27 267.21-3.71L267.21-3.71Q267.8-4.17 268.19-4.74L268.19-4.74 268.19-17.97Q268.11-18.68 267.55-19.19L267.55-19.19Q266.8-19.82 265.98-19.87 265.16-19.92 265.16-20.37 265.16-20.83 265.55-20.92L265.55-20.92 271.14-22.53Q271.43-22.63 271.72-22.63 272-22.63 272-22.14L272-22.14 272-4.81Q272.12-3.74 272.61-3.27 273.1-2.81 274.19-2.81L274.19-2.81 275.61-2.91Q275.76-2.91 275.76-2.62 275.76-2.34 275.39-2.17L275.39-2.17 268.9 0.51Q268.6 0.66 268.4 0.66 268.19 0.66 268.19 0.05L268.19 0.05ZM294.02-4.03Q294.02-3.39 294.61-3.02 295.21-2.64 295.99-2.64 296.77-2.64 297.3-3.04 297.82-3.44 298.02-3.44 298.21-3.44 298.21-2.92 298.21-2.39 297.73-2.03L297.73-2.03Q294.06 0.66 292.77 0.66L292.77 0.66Q291.21 0.66 290.23-2.59L290.23-2.59Q290.16-2.83 290.11-2.81L290.11-2.81Q287.08-0.54 286.3-0.07L286.3-0.07Q284.3 1.07 282.28 0.29 280.27-0.49 279.37-2.29L279.37-2.29Q278.93-3.22 278.93-4.27L278.93-4.27Q278.93-6.35 280.47-7.57 282-8.79 286.33-9.91L286.33-9.91Q287.79-10.3 288.94-10.91 290.08-11.52 290.15-11.69 290.21-11.87 290.21-12.01L290.21-12.01 290.21-16.7Q290.21-19.46 288.06-20.58L288.06-20.58Q287.35-20.95 286.36-20.95 285.37-20.95 284.36-20.17 283.35-19.38 283.35-17.94L283.35-17.94 283.47-16.99Q283.32-16.7 281.71-16.02 280.1-15.33 279.86-15.28L279.86-15.28Q279.46-15.28 279.46-16.22 279.46-17.16 280.03-18.31 280.59-19.46 281.61-20.41L281.61-20.41Q284.01-22.63 287.08-22.63 290.16-22.63 292.09-20.94 294.02-19.24 294.02-16.89L294.02-16.89 294.02-4.03ZM282.76-4.74Q282.76-3.56 283.66-2.7 284.57-1.83 285.73-1.83 286.89-1.83 288.55-2.82 290.21-3.81 290.21-4.86L290.21-4.86 290.21-9.81Q290.21-10.08 290.08-10.08 289.96-10.08 289.91-10.06L289.91-10.06 284.25-7.42Q283.37-6.79 283.07-6.35 282.76-5.91 282.76-4.74ZM309.54-0.93L309.54-0.93Q310.69-0.78 310.69-0.34L310.69-0.34Q310.69-0.05 310.44 0L310.44 0 299.55 0Q299.31-0.05 299.31-0.34L299.31-0.34Q299.31-0.78 300.46-0.93L300.46-0.93Q303.1-1.32 303.1-3.71L303.1-3.71 303.1-34.16Q303.1-35.18 301.97-35.57L301.97-35.57Q301.48-35.74 300.92-35.85 300.36-35.96 300.03-36.06 299.7-36.16 299.62-36.24 299.53-36.33 299.53-36.61 299.53-36.89 299.9-37.08L299.9-37.08 306.12-40.01Q306.42-40.16 306.49-40.16L306.49-40.16Q306.9-40.16 306.9-39.58L306.9-39.58 306.9-3.71Q306.9-1.32 309.54-0.93ZM324.14 0L313.25 0Q313-0.05 313-0.34L313-0.34Q313-0.78 314.15-0.93L314.15-0.93Q316.79-1.32 316.79-3.71L316.79-3.71 316.79-16.63Q316.79-17.65 315.67-18.04L315.67-18.04Q315.18-18.21 314.62-18.32 314.05-18.43 313.72-18.53 313.4-18.63 313.31-18.71 313.22-18.8 313.22-19.08 313.22-19.36 313.59-19.56L313.59-19.56 319.82-22.49Q320.11-22.63 320.18-22.63L320.18-22.63Q320.6-22.63 320.6-22.05L320.6-22.05 320.6-3.71Q320.6-1.32 323.23-0.93L323.23-0.93Q324.38-0.78 324.38-0.42 324.38-0.05 324.14 0L324.14 0ZM318.34-29.49Q317.33-29.49 316.56-30.13 315.79-30.76 315.79-31.9 315.79-33.03 316.52-33.69 317.25-34.35 318.27-34.35 319.28-34.35 319.97-33.57 320.67-32.79 320.67-31.88 320.67-30.98 320.01-30.24 319.35-29.49 318.34-29.49ZM340.59-18.77L333.24-18.77Q333.09-18.77 333.09-18.55L333.09-18.55 333.09-5.08Q333.09-3.61 333.74-2.78 334.39-1.95 335.39-1.95 336.39-1.95 337.14-2.28 337.88-2.61 338.43-3 338.98-3.39 339.42-3.72 339.86-4.05 340.2-4.05 340.54-4.05 340.54-3.88L340.54-3.88Q340.54-3.3 340.42-3.13L340.42-3.13Q337.49 0.66 334.77 0.66 332.05 0.66 330.67-1.06 329.29-2.78 329.29-5.18L329.29-5.18 329.29-18.77 327.46-18.77Q326.77-18.77 326.74-19.21 326.7-19.65 326.87-19.78L326.87-19.78Q328.16-20.61 330.43-22.75L330.43-22.75Q330.68-23.02 331.09-23.56 331.51-24.1 332.3-25.02 333.09-25.95 333.51-25.95 333.92-25.95 333.92-25.61L333.92-25.61Q333.92-25.56 333.09-22.41L333.09-22.41Q333.09-21.97 333.49-21.95L333.49-21.95 339.71-21.95Q340.79-21.95 340.79-18.92L340.79-18.92Q340.79-18.77 340.59-18.77L340.59-18.77ZM357.68-21.97L366.93-21.97Q367.2-21.9 367.2-21.63 367.2-21.36 367.15-21.28 367.1-21.19 366.92-21.13 366.73-21.07 366.41-21.02 366.08-20.97 365.37-20.84 364.66-20.7 364.1-19.85 363.54-18.99 362.9-17.48L362.9-17.48 351.43 10.96 349.84 14.33Q349.23 15.63 347.28 15.63L347.28 15.63Q346.42 15.63 345.91 15.06 345.4 14.5 345.4 13.73 345.4 12.96 345.78 12.61 346.15 12.26 346.67 12.04 347.18 11.82 347.73 11.63 348.28 11.45 348.96 10.8 349.65 10.16 349.77 9.84L349.77 9.84Q353.87 0.66 353.87 0.24 353.87-0.17 353.38-0.78L353.38-0.78 345.32-17.6Q344.42-20.07 342.22-20.78L342.22-20.78Q342.05-20.83 341.81-20.85L341.81-20.85Q340.78-20.95 340.78-21.46 340.78-21.97 341.37-21.97L341.37-21.97 352.23-21.97Q352.43-21.97 352.43-21.59 352.43-21.22 352.09-21.08 351.74-20.95 350.57-20.95L350.57-20.95Q348.69-20.95 348.69-19.48L348.69-19.48 348.91-18.9 355.24-5.35Q355.72-4.1 356.21-5.42L356.21-5.42Q356.26-5.54 356.82-7.01L356.82-7.01Q360.14-15.43 360.55-16.75 360.95-18.07 360.95-18.73 360.95-19.38 360.25-20.12 359.56-20.85 358.35-20.85 357.14-20.85 357.14-21.56L357.14-21.56Q357.14-21.97 357.68-21.97L357.68-21.97ZM416.8-30.18L416.8-4.42Q416.8-1.12 421.37-0.98L421.37-0.98Q421.56-0.98 421.56-0.78L421.56-0.78 421.56-0.2Q421.56 0 421.37 0L421.37 0 405.84 0Q405.65 0 405.65-0.2L405.65-0.2 405.65-0.78Q405.65-0.98 406.87-0.98 408.09-0.98 409.65-1.51L409.65-1.51Q412.04-2.29 412.04-4.15L412.04-4.15 412.04-15.8Q412.04-16.04 411.97-16.11 411.9-16.19 411.65-16.19L411.65-16.19 392.41-16.19Q392.17-16.19 392.1-16.11 392.02-16.04 392.02-15.8L392.02-15.8 392.02-3.91Q392.02-0.98 396.34-0.98L396.34-0.98Q396.54-0.98 396.54-0.78L396.54-0.78 396.54-0.2Q396.54 0 396.37 0L396.37 0 382.89 0Q382.7 0 382.7-0.2L382.7-0.2 382.7-0.78Q382.7-0.98 383.19-0.98L383.19-0.98Q387.26-0.98 387.26-4.47L387.26-4.47 387.26-30.52Q387.26-33.37 383.87-33.54L383.87-33.54Q383.36-33.57 383.36-33.76L383.36-33.76 383.36-34.23Q383.36-34.42 383.53-34.42L383.53-34.42 395.78-34.42Q395.98-34.42 395.98-34.23L395.98-34.23 395.98-33.76Q395.98-33.62 395.51-33.62L395.51-33.62Q392.02-33.62 392.02-30.18L392.02-30.18 392.02-18.9Q392.02-18.65 392.1-18.58 392.17-18.51 392.41-18.51L392.41-18.51 411.65-18.51Q411.9-18.51 411.97-18.58 412.04-18.65 412.04-18.9L412.04-18.9 412.04-30.57Q411.99-30.79 411.98-30.97 411.97-31.15 411.9-31.54L411.9-31.54Q411.73-32.37 410.16-32.9 408.6-33.42 406.62-33.57L406.62-33.57Q406.43-33.57 406.43-33.76L406.43-33.76 406.43-34.23Q406.43-34.42 406.6-34.42L406.6-34.42 420.69-34.42Q420.88-34.42 420.88-34.23L420.88-34.23 420.88-33.76Q420.88-33.62 420.42-33.62L420.42-33.62Q416.8-33.62 416.8-30.18L416.8-30.18ZM442.83-12.87L428.67-12.87Q428.25-12.87 428.25-11.08L428.25-11.08Q428.25-7.3 430.5-4.74 432.74-2.17 436.08-2.17 439.41-2.17 442.48-5.05L442.48-5.05Q442.53-5.1 442.61-5.1L442.61-5.1 442.73-5.1Q442.87-5.1 443.01-4.87 443.14-4.64 443.27-4.57L443.27-4.57Q440.43-1.12 436.6 0.2L436.6 0.2Q435.28 0.66 433.62 0.66 431.96 0.66 430.25-0.26 428.54-1.17 427.32-2.66L427.32-2.66Q424.74-5.76 424.74-10.39 424.74-15.01 427.56-18.82 430.37-22.63 435.31-22.63L435.31-22.63Q438.85-22.63 441.09-19.47 443.34-16.31 443.34-13.92L443.34-13.92Q443.34-12.87 442.83-12.87L442.83-12.87ZM428.93-15.5L428.93-15.21Q428.93-14.75 429.37-14.75L429.37-14.75 438.58-14.75Q439.21-14.75 439.21-15.5L439.21-15.5Q439.21-17.26 437.64-19.1 436.06-20.95 434.18-20.95L434.18-20.95Q432.35-20.95 430.85-19.29 429.35-17.63 428.93-15.5L428.93-15.5ZM462.53-4.03Q462.53-3.39 463.12-3.02 463.72-2.64 464.5-2.64 465.28-2.64 465.81-3.04 466.33-3.44 466.53-3.44 466.72-3.44 466.72-2.92 466.72-2.39 466.24-2.03L466.24-2.03Q462.57 0.66 461.28 0.66L461.28 0.66Q459.72 0.66 458.74-2.59L458.74-2.59Q458.67-2.83 458.62-2.81L458.62-2.81Q455.59-0.54 454.81-0.07L454.81-0.07Q452.81 1.07 450.79 0.29 448.78-0.49 447.88-2.29L447.88-2.29Q447.44-3.22 447.44-4.27L447.44-4.27Q447.44-6.35 448.98-7.57 450.51-8.79 454.84-9.91L454.84-9.91Q456.3-10.3 457.45-10.91 458.6-11.52 458.66-11.69 458.72-11.87 458.72-12.01L458.72-12.01 458.72-16.7Q458.72-19.46 456.57-20.58L456.57-20.58Q455.86-20.95 454.87-20.95 453.88-20.95 452.87-20.17 451.86-19.38 451.86-17.94L451.86-17.94 451.98-16.99Q451.83-16.7 450.22-16.02 448.61-15.33 448.37-15.28L448.37-15.28Q447.97-15.28 447.97-16.22 447.97-17.16 448.54-18.31 449.1-19.46 450.12-20.41L450.12-20.41Q452.52-22.63 455.59-22.63 458.67-22.63 460.6-20.94 462.53-19.24 462.53-16.89L462.53-16.89 462.53-4.03ZM451.27-4.74Q451.27-3.56 452.17-2.7 453.08-1.83 454.24-1.83 455.4-1.83 457.06-2.82 458.72-3.81 458.72-4.86L458.72-4.86 458.72-9.81Q458.72-10.08 458.6-10.08 458.47-10.08 458.42-10.06L458.42-10.06 452.76-7.42Q451.88-6.79 451.58-6.35 451.27-5.91 451.27-4.74ZM478.05-0.93L478.05-0.93Q479.2-0.78 479.2-0.34L479.2-0.34Q479.2-0.05 478.95 0L478.95 0 468.07 0Q467.82-0.05 467.82-0.34L467.82-0.34Q467.82-0.78 468.97-0.93L468.97-0.93Q471.61-1.32 471.61-3.71L471.61-3.71 471.61-34.16Q471.61-35.18 470.48-35.57L470.48-35.57Q469.99-35.74 469.43-35.85 468.87-35.96 468.54-36.06 468.21-36.16 468.13-36.24 468.04-36.33 468.04-36.61 468.04-36.89 468.41-37.08L468.41-37.08 474.63-40.01Q474.93-40.16 475-40.16L475-40.16Q475.41-40.16 475.41-39.58L475.41-39.58 475.41-3.71Q475.41-1.32 478.05-0.93ZM495.04-18.77L487.69-18.77Q487.55-18.77 487.55-18.55L487.55-18.55 487.55-5.08Q487.55-3.61 488.19-2.78 488.84-1.95 489.84-1.95 490.84-1.95 491.59-2.28 492.33-2.61 492.88-3 493.43-3.39 493.87-3.72 494.31-4.05 494.65-4.05 494.99-4.05 494.99-3.88L494.99-3.88Q494.99-3.3 494.87-3.13L494.87-3.13Q491.94 0.66 489.22 0.66 486.5 0.66 485.12-1.06 483.74-2.78 483.74-5.18L483.74-5.18 483.74-18.77 481.91-18.77Q481.22-18.77 481.19-19.21 481.15-19.65 481.32-19.78L481.32-19.78Q482.61-20.61 484.88-22.75L484.88-22.75Q485.13-23.02 485.54-23.56 485.96-24.1 486.75-25.02 487.55-25.95 487.96-25.95 488.38-25.95 488.38-25.61L488.38-25.61Q488.38-25.56 487.55-22.41L487.55-22.41Q487.55-21.97 487.94-21.95L487.94-21.95 494.16-21.95Q495.24-21.95 495.24-18.92L495.24-18.92Q495.24-18.77 495.04-18.77L495.04-18.77ZM504.17-39.58L504.17-18.9Q504.17-18.31 504.34-18.31 504.51-18.31 504.58-18.4 504.66-18.48 505.61-19.53L505.61-19.53Q508.37-22.61 511.2-22.61L511.2-22.61Q514.91-22.61 516.64-20.95L516.64-20.95Q518.77-18.85 518.77-13.89L518.77-13.89 518.77-3.71Q518.77-1.32 521.4-0.93L521.4-0.93Q522.55-0.78 522.55-0.42 522.55-0.05 522.31 0L522.31 0 511.42 0Q511.18-0.05 511.18-0.34L511.18-0.34Q511.18-0.78 512.32-0.93L512.32-0.93Q514.96-1.32 514.96-3.71L514.96-3.71 514.96-13.65Q514.96-17.24 514.45-18.31L514.45-18.31Q513.47-20.46 510.37-20.46L510.37-20.46Q508.47-20.46 506.32-18.84 504.17-17.21 504.17-15.26L504.17-15.26 504.17-3.71Q504.17-1.32 506.81-0.93L506.81-0.93Q507.95-0.78 507.95-0.42 507.95-0.05 507.71 0L507.71 0 496.82 0Q496.58-0.05 496.58-0.34L496.58-0.34Q496.58-0.78 497.72-0.93L497.72-0.93Q500.36-1.32 500.36-3.71L500.36-3.71 500.36-34.16Q500.36-35.18 499.24-35.57L499.24-35.57Q498.75-35.74 498.19-35.85 497.63-35.96 497.3-36.06 496.97-36.16 496.88-36.24 496.8-36.33 496.8-36.61 496.8-36.89 497.16-37.08L497.16-37.08 503.39-40.01Q503.68-40.16 503.75-40.16L503.75-40.16Q504.17-40.16 504.17-39.58L504.17-39.58ZM544.16-19.7L544.16-19.7Q544.16-17.99 542.18-17.99L542.18-17.99Q541.18-17.99 540.48-18.57 539.79-19.14 539.41-19.54 539.03-19.95 538.61-20.29L538.61-20.29Q536.86-21.73 534.33-20.61 531.8-19.48 530.44-15.82L530.44-15.82Q529.68-13.79 529.68-11.79L529.68-11.79Q529.68-7.5 531.63-4.77 533.59-2.05 537.61-2.05L537.61-2.05Q540.62-2.05 543.01-4.74L543.01-4.74Q543.74-5.54 543.89-5.54 544.03-5.54 544.21-5.4 544.38-5.25 544.38-4.97 544.38-4.69 544.23-4.54L544.23-4.54Q540.49 0.66 534.83 0.66L534.83 0.66Q530.73 0.66 528.1-2.39 525.48-5.44 525.48-9.38L525.48-9.38Q525.5-16.65 529-19.85L529-19.85Q532.07-22.66 537.76-22.66L537.76-22.66Q541.28-22.66 542.42-21.95 543.57-21.24 544.03-20.17L544.03-20.17Q544.16-19.92 544.16-19.7ZM562.88-4.03Q562.88-3.39 563.48-3.02 564.08-2.64 564.86-2.64 565.64-2.64 566.16-3.04 566.69-3.44 566.88-3.44 567.08-3.44 567.08-2.92 567.08-2.39 566.59-2.03L566.59-2.03Q562.93 0.66 561.63 0.66L561.63 0.66Q560.07 0.66 559.1-2.59L559.1-2.59Q559.02-2.83 558.97-2.81L558.97-2.81Q555.95-0.54 555.16-0.07L555.16-0.07Q553.16 1.07 551.15 0.29 549.13-0.49 548.23-2.29L548.23-2.29Q547.79-3.22 547.79-4.27L547.79-4.27Q547.79-6.35 549.33-7.57 550.87-8.79 555.19-9.91L555.19-9.91Q556.65-10.3 557.8-10.91 558.95-11.52 559.01-11.69 559.07-11.87 559.07-12.01L559.07-12.01 559.07-16.7Q559.07-19.46 556.92-20.58L556.92-20.58Q556.21-20.95 555.23-20.95 554.24-20.95 553.22-20.17 552.21-19.38 552.21-17.94L552.21-17.94 552.33-16.99Q552.19-16.7 550.57-16.02 548.96-15.33 548.72-15.28L548.72-15.28Q548.33-15.28 548.33-16.22 548.33-17.16 548.89-18.31 549.45-19.46 550.48-20.41L550.48-20.41Q552.87-22.63 555.95-22.63 559.02-22.63 560.95-20.94 562.88-19.24 562.88-16.89L562.88-16.89 562.88-4.03ZM551.62-4.74Q551.62-3.56 552.53-2.7 553.43-1.83 554.59-1.83 555.75-1.83 557.41-2.82 559.07-3.81 559.07-4.86L559.07-4.86 559.07-9.81Q559.07-10.08 558.95-10.08 558.83-10.08 558.78-10.06L558.78-10.06 553.11-7.42Q552.23-6.79 551.93-6.35 551.62-5.91 551.62-4.74ZM584.24-17.5L584.24-17.5Q583.95-17.55 583.38-17.82L583.38-17.82Q581.36-18.75 580.21-18.75 579.06-18.75 577.81-17.32 576.55-15.89 576.55-14.75L576.55-14.75 576.55-3.71Q576.55-1.88 578.67-1.27L578.67-1.27Q579.6-1.03 580.41-0.92 581.21-0.81 581.44-0.71 581.68-0.61 581.68-0.33 581.68-0.05 581.43 0L581.43 0 569.2 0Q568.96-0.05 568.96-0.34L568.96-0.34Q568.96-0.78 570.1-0.93L570.1-0.93Q572.74-1.32 572.74-3.71L572.74-3.71 572.74-16.63Q572.74-17.65 571.62-18.04L571.62-18.04Q571.13-18.21 570.57-18.32 570.01-18.43 569.68-18.53 569.35-18.63 569.26-18.71 569.18-18.8 569.18-19.08 569.18-19.36 569.54-19.56L569.54-19.56 575.77-22.49Q576.06-22.63 576.13-22.63L576.13-22.63Q576.55-22.63 576.55-22.05L576.55-22.05 576.55-18.09Q576.55-17.8 576.7-17.8L576.7-17.8Q576.89-17.8 577.7-18.95L577.7-18.95Q580.02-22.19 581.53-22.19L581.53-22.19Q582.38-22.19 584.15-21.51 585.92-20.83 585.92-20.36L585.92-20.36Q585.92-19.8 585.36-18.65 584.8-17.5 584.24-17.5ZM605.72-12.87L591.56-12.87Q591.15-12.87 591.15-11.08L591.15-11.08Q591.15-7.3 593.39-4.74 595.64-2.17 598.97-2.17 602.3-2.17 605.38-5.05L605.38-5.05Q605.43-5.1 605.5-5.1L605.5-5.1 605.62-5.1Q605.77-5.1 605.9-4.87 606.04-4.64 606.16-4.57L606.16-4.57Q603.33-1.12 599.5 0.2L599.5 0.2Q598.18 0.66 596.52 0.66 594.86 0.66 593.15-0.26 591.44-1.17 590.22-2.66L590.22-2.66Q587.63-5.76 587.63-10.39 587.63-15.01 590.45-18.82 593.27-22.63 598.2-22.63L598.2-22.63Q601.74-22.63 603.99-19.47 606.23-16.31 606.23-13.92L606.23-13.92Q606.23-12.87 605.72-12.87L605.72-12.87ZM591.83-15.5L591.83-15.21Q591.83-14.75 592.27-14.75L592.27-14.75 601.47-14.75Q602.11-14.75 602.11-15.5L602.11-15.5Q602.11-17.26 600.53-19.1 598.96-20.95 597.08-20.95L597.08-20.95Q595.25-20.95 593.75-19.29 592.24-17.63 591.83-15.5L591.83-15.5ZM637.04-18.77L629.69-18.77Q629.54-18.77 629.54-18.55L629.54-18.55 629.54-5.08Q629.54-3.61 630.19-2.78 630.84-1.95 631.84-1.95 632.84-1.95 633.58-2.28 634.33-2.61 634.88-3 635.43-3.39 635.87-3.72 636.31-4.05 636.65-4.05 636.99-4.05 636.99-3.88L636.99-3.88Q636.99-3.3 636.87-3.13L636.87-3.13Q633.94 0.66 631.22 0.66 628.49 0.66 627.12-1.06 625.74-2.78 625.74-5.18L625.74-5.18 625.74-18.77 623.9-18.77Q623.22-18.77 623.18-19.21 623.15-19.65 623.32-19.78L623.32-19.78Q624.61-20.61 626.88-22.75L626.88-22.75Q627.13-23.02 627.54-23.56 627.96-24.1 628.75-25.02 629.54-25.95 629.96-25.95 630.37-25.95 630.37-25.61L630.37-25.61Q630.37-25.56 629.54-22.41L629.54-22.41Q629.54-21.97 629.93-21.95L629.93-21.95 636.16-21.95Q637.23-21.95 637.23-18.92L637.23-18.92Q637.23-18.77 637.04-18.77L637.04-18.77ZM639.67-10.97Q639.67-15.77 643.08-19.23 646.49-22.68 651.25-22.68 656.01-22.68 659.52-19.32 663.04-15.97 663.04-11.04 663.04-6.1 659.71-2.72 656.37 0.66 651.34 0.66 646.31 0.66 642.99-2.76 639.67-6.18 639.67-10.97ZM645.75-4.69L645.75-4.69Q648.15-0.66 652.27-0.66L652.27-0.66Q655.47-0.66 657.17-3.22 658.86-5.79 658.86-9.52 658.86-13.26 656.48-17.19 654.1-21.12 650.07-21.12L650.07-21.12Q647.12-21.12 645.42-18.57 643.73-16.02 643.73-12.1 643.73-8.18 645.75-4.69ZM704.29 0L691.13 0Q690.3 0 690.3-0.49L690.3-0.49 690.3-0.73Q690.3-1.12 691.02-1.21 691.74-1.29 691.96-1.32L691.96-1.32Q693.82-1.51 694.58-2.23 695.33-2.95 695.33-4.39L695.33-4.39 695.33-12.48Q695.33-12.65 695.26-12.84L695.26-12.84 685.27-28.76Q682.93-32.5 680.64-33.06L680.64-33.06Q680.51-33.08 680.2-33.15 679.88-33.23 678.78-33.4L678.78-33.4Q678.39-33.47 678.39-33.95 678.39-34.42 678.76-34.42L678.76-34.42 692.72-34.42Q693.14-34.42 693.14-33.94 693.14-33.45 692.72-33.45L692.72-33.45Q691.08-33.28 690.55-33.11L690.55-33.11Q689.33-32.67 689.33-31.54L689.33-31.54Q689.33-30.96 689.62-30.49L689.62-30.49 697.87-17.31Q698.14-16.92 698.2-16.81 698.26-16.7 698.47-16.7 698.68-16.7 699.12-17.41L699.12-17.41 705.71-28.61Q706-29.2 706.38-29.87 706.76-30.54 706.76-31.25L706.76-31.25Q706.76-33.03 704.32-33.35L704.32-33.35Q703.44-33.47 703.36-33.62 703.29-33.76 703.29-33.98L703.29-33.98Q703.29-34.42 703.71-34.42L703.71-34.42 715.11-34.42Q715.45-34.42 715.45-34.08 715.45-33.74 715.34-33.62 715.23-33.5 715.05-33.44 714.86-33.37 714.64-33.34 714.42-33.3 713.69-33.13L713.69-33.13Q711.98-32.71 709.98-30.42L709.98-30.42Q709.76-30.15 709.74-30.1L709.74-30.1 700.09-13.5 700.09-4.39Q700.09-3.08 700.84-2.32 701.58-1.56 703.35-1.33 705.12-1.1 705.12-0.76L705.12-0.76 705.12-0.49Q705.12 0 704.29 0L704.29 0ZM717.4-10.97Q717.4-15.77 720.81-19.23 724.21-22.68 728.97-22.68 733.73-22.68 737.25-19.32 740.76-15.97 740.76-11.04 740.76-6.1 737.43-2.72 734.1 0.66 729.07 0.66 724.04 0.66 720.72-2.76 717.4-6.18 717.4-10.97ZM723.48-4.69L723.48-4.69Q725.87-0.66 730-0.66L730-0.66Q733.2-0.66 734.89-3.22 736.59-5.79 736.59-9.52 736.59-13.26 734.21-17.19 731.83-21.12 727.8-21.12L727.8-21.12Q724.85-21.12 723.15-18.57 721.45-16.02 721.45-12.1 721.45-8.18 723.48-4.69ZM761 0.05L761-2.15Q760.88-2.56 760.68-2.43 760.49-2.29 759.1-1.59L759.1-1.59Q754.53 0.68 751.48 0.68 748.43 0.68 747.09-1.27L747.09-1.27Q746.6-2 746.6-3.08L746.6-3.08 746.6-17.97Q746.52-18.68 745.96-19.19L745.96-19.19Q745.21-19.82 744.39-19.87 743.57-19.92 743.57-20.37 743.57-20.83 743.96-20.92L743.96-20.92 749.55-22.53Q749.84-22.63 750.13-22.63 750.41-22.63 750.41-22.22L750.41-22.22 750.41-5.83Q750.41-4.13 751.92-3.2 753.43-2.27 755.79-2.27 758.15-2.27 760.02-3.71L760.02-3.71Q760.61-4.17 761-4.74L761-4.74 761-17.97Q760.93-18.68 760.37-19.19L760.37-19.19Q759.61-19.82 758.79-19.87 757.97-19.92 757.97-20.37 757.97-20.83 758.36-20.92L758.36-20.92 763.96-22.53Q764.25-22.63 764.53-22.63 764.81-22.63 764.81-22.14L764.81-22.14 764.81-4.81Q764.93-3.74 765.42-3.27 765.91-2.81 767.01-2.81L767.01-2.81 768.42-2.91Q768.57-2.91 768.57-2.62 768.57-2.34 768.2-2.17L768.2-2.17 761.71 0.51Q761.42 0.66 761.21 0.66 761 0.66 761 0.05L761 0.05ZM786.58-17.5L786.58-17.5Q786.29-17.55 785.73-17.82L785.73-17.82Q783.7-18.75 782.56-18.75 781.41-18.75 780.15-17.32 778.89-15.89 778.89-14.75L778.89-14.75 778.89-3.71Q778.89-1.88 781.02-1.27L781.02-1.27Q781.95-1.03 782.75-0.92 783.56-0.81 783.79-0.71 784.02-0.61 784.02-0.33 784.02-0.05 783.78 0L783.78 0 771.55 0Q771.3-0.05 771.3-0.34L771.3-0.34Q771.3-0.78 772.45-0.93L772.45-0.93Q775.09-1.32 775.09-3.71L775.09-3.71 775.09-16.63Q775.09-17.65 773.96-18.04L773.96-18.04Q773.47-18.21 772.91-18.32 772.35-18.43 772.02-18.53 771.69-18.63 771.61-18.71 771.52-18.8 771.52-19.08 771.52-19.36 771.89-19.56L771.89-19.56 778.11-22.49Q778.41-22.63 778.48-22.63L778.48-22.63Q778.89-22.63 778.89-22.05L778.89-22.05 778.89-18.09Q778.89-17.8 779.04-17.8L779.04-17.8Q779.24-17.8 780.04-18.95L780.04-18.95Q782.36-22.19 783.87-22.19L783.87-22.19Q784.73-22.19 786.5-21.51 788.27-20.83 788.27-20.36L788.27-20.36Q788.27-19.8 787.71-18.65 787.15-17.5 786.58-17.5ZM813.07-19.75L822.64-19.75Q825.91-19.75 825.91-22.95L825.91-22.95Q825.91-23.14 826.11-23.14L826.11-23.14 826.69-23.14Q826.89-23.14 826.89-22.95L826.89-22.95 826.89-13.87Q826.89-13.67 826.69-13.67L826.69-13.67 826.11-13.67Q825.91-13.67 825.91-13.87L825.91-13.87Q825.91-16.11 824.64-16.97L824.64-16.97Q823.96-17.43 822.69-17.43L822.69-17.43 813.07-17.43Q812.48-17.43 812.48-16.77L812.48-16.77 812.48-4.22Q812.48-2.56 814.47-1.77 816.46-0.98 816.99-0.98 817.51-0.98 817.51-0.78L817.51-0.78 817.51-0.2Q817.51 0 817.32 0L817.32 0 803.99 0Q803.79 0 803.79-0.2L803.79-0.2 803.79-0.78Q803.79-0.98 804.21-0.98 804.62-0.98 805.5-1.37 806.38-1.76 807.05-2.53 807.72-3.3 807.72-4.39L807.72-4.39 807.72-30.76Q807.72-32.35 806.04-33.03L806.04-33.03Q805.06-33.45 804.11-33.45L804.11-33.45 804.01-33.45Q803.82-33.45 803.82-33.64L803.82-33.64 803.82-34.23Q803.82-34.42 804.01-34.42L804.01-34.42 827.03-34.42Q827.33-34.38 827.47-34.29 827.62-34.2 827.62-33.86L827.62-33.86 827.62-27.95Q827.62-27.66 827.53-27.59 827.45-27.51 827.23-27.51L827.23-27.51 826.94-27.51Q826.89-27.54 826.61-28.85 826.33-30.15 825.74-30.86L825.74-30.86Q824.74-31.93 823.47-32.06L823.47-32.06Q822.96-32.1 822.22-32.1L822.22-32.1 812.97-32.1Q812.48-32.1 812.48-31.62L812.48-31.62 812.48-20.31Q812.48-19.75 813.07-19.75L813.07-19.75ZM842.78 0L831.89 0Q831.65-0.05 831.65-0.34L831.65-0.34Q831.65-0.78 832.79-0.93L832.79-0.93Q835.43-1.32 835.43-3.71L835.43-3.71 835.43-16.63Q835.43-17.65 834.31-18.04L834.31-18.04Q833.82-18.21 833.26-18.32 832.7-18.43 832.37-18.53 832.04-18.63 831.95-18.71 831.87-18.8 831.87-19.08 831.87-19.36 832.23-19.56L832.23-19.56 838.46-22.49Q838.75-22.63 838.82-22.63L838.82-22.63Q839.24-22.63 839.24-22.05L839.24-22.05 839.24-3.71Q839.24-1.32 841.88-0.93L841.88-0.93Q843.02-0.78 843.02-0.42 843.02-0.05 842.78 0L842.78 0ZM836.98-29.49Q835.97-29.49 835.2-30.13 834.43-30.76 834.43-31.9 834.43-33.03 835.16-33.69 835.89-34.35 836.91-34.35 837.92-34.35 838.62-33.57 839.31-32.79 839.31-31.88 839.31-30.98 838.65-30.24 837.99-29.49 836.98-29.49ZM863.87-7.69L863.87-7.69 863.82-12.84Q863.82-15.99 863.28-17.26 862.75-18.53 861.92-19.18 861.09-19.82 859.68-19.82 858.28-19.82 853.74-17.63L853.74-17.63Q853.13-17.26 853.1-16.94L853.1-16.94 853.1-3.81Q853.1-1.34 855.74-0.98L855.74-0.98Q856.89-0.81 856.89-0.43 856.89-0.05 856.64 0L856.64 0 845.75 0Q845.51-0.05 845.51-0.34L845.51-0.34Q845.51-0.81 846.66-0.98L846.66-0.98Q849.29-1.34 849.29-3.81L849.29-3.81 849.29-17.82Q849.29-18.85 848.17-19.24L848.17-19.24Q847.68-19.41 847.12-19.52 846.56-19.63 846.23-19.73 845.9-19.82 845.82-19.91 845.73-20 845.73-20.28 845.73-20.56 846.1-20.75L846.1-20.75 852.32-23.68Q852.61-23.83 852.69-23.83L852.69-23.83Q853.1-23.83 853.1-23.24L853.1-23.24 853.1-19.43Q853.18-19.19 853.3-19.19L853.3-19.19Q853.45-19.19 854.35-19.63L854.35-19.63Q856.45-20.68 858.57-21.66 860.7-22.63 862.09-22.63L862.09-22.63Q867.73-22.63 867.73-12.35L867.73-12.35 867.51-5.22 867.51-3.81Q867.51-1.9 869.41-1.32L869.41-1.32Q870.22-1.05 870.96-0.94 871.71-0.83 871.94-0.73 872.17-0.63 872.17-0.34 872.17-0.05 871.93 0L871.93 0 860.16 0Q859.91-0.05 859.91-0.34L859.91-0.34Q859.91-0.81 861.06-0.98L861.06-0.98Q863.67-1.34 863.67-4L863.67-4Q863.87-5.22 863.87-7.69ZM892.65-20.29L892.65-20.29Q892.65-20.29 899.19-20.58L899.19-20.58Q899.76-20.58 899.93-20.46 900.1-20.34 900.29-19.62 900.49-18.9 900.49-18.26 900.49-17.63 900.37-17.53 900.24-17.43 899.88-17.43L899.88-17.43 894.46-17.43Q894.6-17.16 894.78-16.87 894.95-16.58 895.21-15.89 895.48-15.21 895.48-13.78 895.48-12.35 894.79-10.8 894.09-9.25 892.75-8.06L892.75-8.06Q889.77-5.37 885.03-5.37L885.03-5.37Q883.79-5.37 882.3-5.83L882.3-5.83Q881.93-5.44 881.32-5.11 880.71-4.79 880.13-4.44L880.13-4.44Q878.66-3.61 878.66-2.78L878.66-2.78Q878.66-0.71 885.55-0.66 892.43-0.61 894.59-0.21 896.75 0.2 897.95 1.39L897.95 1.39Q899.83 3.27 899.83 5.69L899.83 5.69Q899.83 7.76 898.05 9.96L898.05 9.96Q894.95 13.84 888.57 15.14L888.57 15.14Q886.3 15.6 883.76 15.6L883.76 15.6Q879.15 15.6 876.76 13.93 874.37 12.26 874.37 9.89L874.37 9.89Q874.37 8.59 874.98 7.75 875.59 6.91 876.53 6.16 877.47 5.42 878.59 4.6 879.71 3.78 880.74 2.51L880.74 2.51Q878.39 2.32 876.72 1.03 875.05-0.27 875.05-1.51 875.05-2.76 875.71-3.36 876.37-3.96 877.32-4.38 878.27-4.81 879.32-5.18 880.37-5.54 881.15-6.13L881.15-6.13Q878.42-7.2 876.93-9.09 875.44-10.99 875.44-13.23L875.44-13.23Q875.44-17.41 878.48-20.04 881.52-22.68 885.82-22.68 890.11-22.68 892.65-20.29ZM879.38 5.18Q878.81 5.74 878.44 6.37 878.08 7.01 878.08 7.97 878.08 8.94 878.77 10 879.47 11.06 880.66 11.91L880.66 11.91Q883.3 13.87 887.01 13.87 890.72 13.87 893.74 11.71 896.75 9.55 896.75 6.97 896.75 4.39 894.26 3.52L894.26 3.52Q893.09 3.13 888.23 3.03 883.37 2.93 881.93 2.76L881.93 2.76Q881.3 3.49 880.63 4.05 879.96 4.61 879.38 5.18ZM891.48-13.79Q891.48-17.24 889.76-19.4 888.04-21.56 885.21-21.56L885.21-21.56Q881.54-21.56 880.03-18.12L880.03-18.12Q879.44-16.8 879.44-15.09L879.44-15.09Q879.44-11.6 880.88-9.28L880.88-9.28Q882.64-6.49 885.5-6.49 888.35-6.49 889.92-8.42 891.48-10.35 891.48-13.79ZM920.48-12.87L906.32-12.87Q905.91-12.87 905.91-11.08L905.91-11.08Q905.91-7.3 908.15-4.74 910.4-2.17 913.73-2.17 917.06-2.17 920.14-5.05L920.14-5.05Q920.19-5.1 920.26-5.1L920.26-5.1 920.38-5.1Q920.53-5.1 920.66-4.87 920.8-4.64 920.92-4.57L920.92-4.57Q918.09-1.12 914.26 0.2L914.26 0.2Q912.94 0.66 911.28 0.66 909.62 0.66 907.91-0.26 906.2-1.17 904.98-2.66L904.98-2.66Q902.39-5.76 902.39-10.39 902.39-15.01 905.21-18.82 908.03-22.63 912.96-22.63L912.96-22.63Q916.5-22.63 918.75-19.47 920.99-16.31 920.99-13.92L920.99-13.92Q920.99-12.87 920.48-12.87L920.48-12.87ZM906.59-15.5L906.59-15.21Q906.59-14.75 907.03-14.75L907.03-14.75 916.23-14.75Q916.87-14.75 916.87-15.5L916.87-15.5Q916.87-17.26 915.29-19.1 913.72-20.95 911.84-20.95L911.84-20.95Q910.01-20.95 908.51-19.29 907-17.63 906.59-15.5L906.59-15.5ZM939.94-17.5L939.94-17.5Q939.64-17.55 939.08-17.82L939.08-17.82Q937.06-18.75 935.91-18.75 934.76-18.75 933.5-17.32 932.25-15.89 932.25-14.75L932.25-14.75 932.25-3.71Q932.25-1.88 934.37-1.27L934.37-1.27Q935.3-1.03 936.1-0.92 936.91-0.81 937.14-0.71 937.37-0.61 937.37-0.33 937.37-0.05 937.13 0L937.13 0 924.9 0Q924.65-0.05 924.65-0.34L924.65-0.34Q924.65-0.78 925.8-0.93L925.8-0.93Q928.44-1.32 928.44-3.71L928.44-3.71 928.44-16.63Q928.44-17.65 927.31-18.04L927.31-18.04Q926.83-18.21 926.26-18.32 925.7-18.43 925.37-18.53 925.04-18.63 924.96-18.71 924.87-18.8 924.87-19.08 924.87-19.36 925.24-19.56L925.24-19.56 931.46-22.49Q931.76-22.63 931.83-22.63L931.83-22.63Q932.25-22.63 932.25-22.05L932.25-22.05 932.25-18.09Q932.25-17.8 932.39-17.8L932.39-17.8Q932.59-17.8 933.39-18.95L933.39-18.95Q935.71-22.19 937.23-22.19L937.23-22.19Q938.08-22.19 939.85-21.51 941.62-20.83 941.62-20.36L941.62-20.36Q941.62-19.8 941.06-18.65 940.5-17.5 939.94-17.5ZM956.61-18.77L949.26-18.77Q949.11-18.77 949.11-18.55L949.11-18.55 949.11-5.08Q949.11-3.61 949.76-2.78 950.41-1.95 951.41-1.95 952.41-1.95 953.15-2.28 953.9-2.61 954.45-3 955-3.39 955.44-3.72 955.88-4.05 956.22-4.05 956.56-4.05 956.56-3.88L956.56-3.88Q956.56-3.3 956.44-3.13L956.44-3.13Q953.51 0.66 950.79 0.66 948.06 0.66 946.68-1.06 945.31-2.78 945.31-5.18L945.31-5.18 945.31-18.77 943.47-18.77Q942.79-18.77 942.75-19.21 942.72-19.65 942.89-19.78L942.89-19.78Q944.18-20.61 946.45-22.75L946.45-22.75Q946.7-23.02 947.11-23.56 947.53-24.1 948.32-25.02 949.11-25.95 949.53-25.95 949.94-25.95 949.94-25.61L949.94-25.61Q949.94-25.56 949.11-22.41L949.11-22.41Q949.11-21.97 949.5-21.95L949.5-21.95 955.73-21.95Q956.8-21.95 956.8-18.92L956.8-18.92Q956.8-18.77 956.61-18.77L956.61-18.77ZM970.01 0L959.12 0Q958.88-0.05 958.88-0.34L958.88-0.34Q958.88-0.78 960.02-0.93L960.02-0.93Q962.66-1.32 962.66-3.71L962.66-3.71 962.66-16.63Q962.66-17.65 961.54-18.04L961.54-18.04Q961.05-18.21 960.49-18.32 959.93-18.43 959.6-18.53 959.27-18.63 959.18-18.71 959.1-18.8 959.1-19.08 959.1-19.36 959.46-19.56L959.46-19.56 965.69-22.49Q965.98-22.63 966.05-22.63L966.05-22.63Q966.47-22.63 966.47-22.05L966.47-22.05 966.47-3.71Q966.47-1.32 969.11-0.93L969.11-0.93Q970.25-0.78 970.25-0.42 970.25-0.05 970.01 0L970.01 0ZM964.21-29.49Q963.2-29.49 962.43-30.13 961.66-30.76 961.66-31.9 961.66-33.03 962.39-33.69 963.12-34.35 964.14-34.35 965.15-34.35 965.85-33.57 966.54-32.79 966.54-31.88 966.54-30.98 965.88-30.24 965.22-29.49 964.21-29.49ZM991.56-2.56L991.56-2.56Q988.2 0.66 984 0.66L984 0.66Q982.48 0.66 979.87 0.1L979.87 0.1Q979.46 0.1 979.42 0.39 979.38 0.68 979.36 1L979.36 1 979.36 11.43Q979.36 13.26 981.48 13.87L981.48 13.87Q982.41 14.11 983.22 14.22 984.02 14.33 984.25 14.43 984.48 14.53 984.48 14.81 984.48 15.09 984.24 15.14L984.24 15.14 972.01 15.14Q971.76 15.09 971.76 14.79L971.76 14.79Q971.76 14.36 972.91 14.21L972.91 14.21Q975.55 13.82 975.55 11.43L975.55 11.43 975.55-17.85Q975.55-18.87 974.43-19.26L974.43-19.26Q973.94-19.43 973.38-19.54 972.81-19.65 972.49-19.75 972.16-19.85 972.07-19.93 971.98-20.02 971.98-20.3 971.98-20.58 972.35-20.78L972.35-20.78 978.58-23.75Q978.77-23.85 978.97-23.85L978.97-23.85Q979.36-23.85 979.36-23.27L979.36-23.27 979.36-20.17Q979.36-19.9 979.64-19.9 979.92-19.9 980.99-20.61L980.99-20.61Q984.09-22.61 987.44-22.61L987.44-22.61Q989.78-22.61 991.74-20.7L991.74-20.7Q994.3-18.21 995.15-13.77L995.15-13.77Q995.4-12.5 995.4-11.07 995.4-9.64 994.93-8.06L994.93-8.06Q994.01-4.91 991.56-2.56ZM984.58-20.07L984.58-20.07Q981.26-20.07 979.36-18.16L979.36-18.16 979.36-4.44Q979.36-3.22 979.77-2.86L979.77-2.86Q980.85-1.93 983.07-1.42L983.07-1.42Q987.46-0.42 989.9-3.52L989.9-3.52Q991.64-5.74 991.64-8.89L991.64-8.89Q991.64-15.01 988.88-18.07L988.88-18.07Q987.22-19.92 984.58-20.07ZM1011.63-18.95L1011.63-16.7Q1011.63-16.16 1011.23-16.16 1010.82-16.16 1010.61-16.75L1010.61-16.75Q1010.02-18.36 1008.86-19.6 1007.7-20.85 1005.99-20.85L1005.99-20.85Q1003.74-20.85 1002.96-18.6L1002.96-18.6Q1002.72-17.85 1002.72-17.04 1002.72-16.24 1003.74-15.25 1004.77-14.26 1007.11-12.89 1009.46-11.52 1010.53-10.57L1010.53-10.57Q1012.97-8.4 1012.97-5.54 1012.97-2.69 1010.87-1.01 1008.77 0.66 1005.99 0.66L1005.99 0.66Q1004.5 0.66 1003.29 0.26 1002.08-0.15 1001.9-0.15 1001.72-0.15 1001.32 0.26 1000.91 0.66 1000.67 0.66L1000.67 0.66 1000.25 0.66Q1000.11 0.66 999.89-1.98 999.67-4.61 999.67-5.1 999.67-5.59 999.75-5.64 999.84-5.69 1000.03-5.69 1000.23-5.69 1000.36-5.57 1000.5-5.44 1000.6-5.26 1000.69-5.08 1000.75-4.88 1000.82-4.69 1001.06-4.15L1001.06-4.15Q1002.72-0.61 1006.19-0.61L1006.19-0.61Q1007.72-0.61 1008.65-1.75 1009.58-2.88 1009.58-4.27 1009.58-5.66 1008.85-6.62 1008.12-7.57 1007.03-8.35 1005.94-9.13 1004.67-9.86L1004.67-9.86Q999.74-12.74 999.74-16.24L999.74-16.24Q999.74-18.85 1001.99-20.74 1004.23-22.63 1006.6-22.63 1008.97-22.63 1010.1-22.12 1011.24-21.61 1011.44-21.25 1011.63-20.9 1011.63-18.95L1011.63-18.95ZM1017.98-2.45Q1017.98-3.76 1018.9-4.72 1019.83-5.69 1021.15-5.69L1021.15-5.69Q1022.44-5.69 1023.38-4.75 1024.32-3.81 1024.32-2.47 1024.32-1.12 1023.4-0.23 1022.47 0.66 1021.15 0.66L1021.15 0.66Q1019.86 0.66 1018.92-0.24 1017.98-1.15 1017.98-2.45Z" opacity="1" transform="matrix(1,0,0,1,0,0)" fill="#0e5ddd" class="slogan-text-1" data-fill-palette-color="secondary" id="text-1"></path></svg></g></svg></g></svg></g></svg></g></svg></g><defs></defs></svg><rect width="395.52" height="138.79179521839" fill="none" stroke="none" visibility="hidden"></rect></g></svg></g></svg>